<svg width="41" height="29" viewBox="0 0 41 29" fill="none" xmlns="http://www.w3.org/2000/svg">
<g filter="url(#filter0_d)">
<path d="M22.7256 23.5376C21.5345 24.8554 19.4655 24.8555 18.2744 23.5376L1.52974 5.01162C-0.213888 3.0825 1.15503 -3.74563e-06 3.75536 -3.5183e-06L37.2447 -5.90572e-07C39.845 -3.63244e-07 41.2139 3.0825 39.4703 5.01162L22.7256 23.5376Z" fill="#E65C49"/>
<path d="M19.0163 22.8671L2.27161 4.34108C1.10919 3.055 2.0218 0.999996 3.75536 0.999996L37.2447 0.999999C38.9782 1 39.8908 3.055 38.7284 4.34108L21.9837 22.8671C21.1897 23.7456 19.8103 23.7456 19.0163 22.8671Z" stroke="#FFFDE5" stroke-width="2"/>
</g>
<defs>
<filter id="filter0_d" x="0.749023" y="0" width="39.5011" height="28.526" filterUnits="userSpaceOnUse" color-interpolation-filters="sRGB">
<feFlood flood-opacity="0" result="BackgroundImageFix"/>
<feColorMatrix in="SourceAlpha" type="matrix" values="0 0 0 0 0 0 0 0 0 0 0 0 0 0 0 0 0 0 127 0" result="hardAlpha"/>
<feOffset dy="4"/>
<feColorMatrix type="matrix" values="0 0 0 0 0 0 0 0 0 0 0 0 0 0 0 0 0 0 0.4 0"/>
<feBlend mode="normal" in2="BackgroundImageFix" result="effect1_dropShadow"/>
<feBlend mode="normal" in="SourceGraphic" in2="effect1_dropShadow" result="shape"/>
</filter>
</defs>
</svg>
